<?xml version="1.0" standalone="no"?>
<!DOCTYPE svg PUBLIC "-//W3C//DTD SVG 20010904//EN"
 "http://www.w3.org/TR/2001/REC-SVG-20010904/DTD/svg10.dtd">
<svg version="1.0" xmlns="http://www.w3.org/2000/svg"
 width="1171.000000pt" height="1280.000000pt" viewBox="0 0 1171.000000 1280.000000"
 preserveAspectRatio="xMidYMid meet">
<metadata>
Created by potrace 1.15, written by Peter Selinger 2001-2017
</metadata>
<g transform="translate(0.000000,1280.000000) scale(0.100000,-0.100000)"
fill="#000000" stroke="none">
<path d="M5310 12794 c-2180 -66 -3938 -423 -4754 -965 -354 -235 -535 -493
-553 -789 -19 -312 160 -605 519 -851 73 -50 189 -164 695 -687 335 -345 757
-780 938 -967 182 -187 854 -882 1495 -1544 l1165 -1203 5 -2762 5 -2761 25
-50 c36 -74 123 -157 195 -186 l60 -24 720 0 720 0 62 29 c73 33 147 107 184
181 l24 50 5 2746 5 2746 740 754 c407 415 861 878 1010 1029 275 280 934 952
1850 1885 280 286 555 567 610 623 55 57 143 133 195 170 122 86 271 235 339
340 l54 82 43 0 44 0 0 360 0 360 -50 0 c-27 0 -50 4 -50 9 0 15 -89 142 -134
191 -362 396 -1106 713 -2181 929 -452 91 -1010 172 -1525 221 -619 58 -1082
80 -1780 84 -311 2 -617 2 -680 0z"/>
</g>
</svg>
