<svg width="30" height="24" viewBox="0 0 30 24" fill="none" xmlns="http://www.w3.org/2000/svg">
<path d="M29.5357 4.82621C28.5451 2.14002 26.1738 0.382485 23.3479 0.238636C23.3367 0.238343 23.3262 0.237991 23.3154 0.237991H22.9006C19.333 0.237991 16.2684 2.43481 14.9888 5.54657C13.7091 2.43481 10.6446 0.237991 7.07692 0.237991H6.66219C6.65135 0.237991 6.64051 0.238284 6.62967 0.238636C3.81012 0.382192 1.44613 2.14101 0.460988 4.82908C-0.55609 7.60428 0.137196 10.5706 2.26797 12.5696L13.4773 23.1718C13.9147 23.5655 14.4679 23.762 15.0169 23.762C15.5714 23.762 16.1213 23.5617 16.5431 23.162L18.2473 21.5537C18.6751 21.1259 18.9173 20.5619 18.9288 19.9663C18.9403 19.3572 18.7099 18.7846 18.2793 18.3542C18.0301 18.1051 17.6262 18.1051 17.377 18.3542C17.1279 18.6033 17.1279 19.0072 17.377 19.2564C17.7589 19.6386 17.7452 20.2512 17.3585 20.6381L15.6667 22.2343C15.3046 22.5766 14.7176 22.5715 14.3424 22.234L3.14273 11.6403C1.38971 9.99574 0.821518 7.55424 1.65924 5.26807C2.46321 3.07383 4.38563 1.63628 6.67877 1.51376H7.07692C11.0877 1.51376 14.3507 4.77676 14.3507 8.78753C14.3507 9.13974 14.6365 9.42556 14.9887 9.42556C15.3409 9.42556 15.6268 9.13974 15.6268 8.78753C15.6268 4.77676 18.8897 1.51376 22.9005 1.51376H23.2987C25.5991 1.63693 27.5293 3.07413 28.3383 5.26772C29.1783 7.54557 28.6136 9.98801 26.8519 11.6546L23.2789 15.2277C22.8498 15.6568 22.6133 16.2189 22.6133 16.8113C22.6133 17.4038 22.8497 17.9658 23.2789 18.3949C23.528 18.6441 23.9319 18.6441 24.1811 18.3949C24.4302 18.1458 24.4302 17.7419 24.1811 17.4927C23.9929 17.3045 23.8895 17.0627 23.8895 16.8112C23.8895 16.5598 23.9929 16.3181 24.1811 16.1298L27.7414 12.5691C29.8682 10.5582 30.5554 7.59121 29.5357 4.82621Z" fill="#33485D"/>
</svg>
