<svg width="30" height="26" viewBox="0 0 30 26" fill="none" xmlns="http://www.w3.org/2000/svg">
<path d="M29.5545 15.6321L26.1326 8.30257L27.6097 8.72629C27.9341 8.81938 28.2726 8.63199 28.3655 8.30734C28.4586 7.98293 28.2712 7.64467 27.9468 7.55157L17.6759 4.60416C17.678 4.56024 17.6792 4.51631 17.6792 4.47215C17.6794 3.25256 16.8561 2.1867 15.6759 1.87947C14.4957 1.57201 13.257 2.10076 12.6624 3.16543L2.39049 0.218255C2.06608 0.125156 1.72758 0.312786 1.63448 0.637199C1.54162 0.961613 1.72901 1.29987 2.05342 1.39297L4.08059 1.97472L0.409396 9.83798C0.164475 9.92368 0.000239036 10.1548 3.21511e-07 10.4145C-0.000715825 12.3984 1.19501 14.1869 3.02857 14.9443C4.86214 15.702 6.97166 15.279 8.37148 13.8732C9.30414 12.9639 9.83098 11.7171 9.83337 10.4145C9.83337 10.1409 9.65123 9.90076 9.38793 9.82652L5.97598 2.51875L12.3244 4.34014C12.3222 4.38407 12.321 4.42799 12.321 4.47239C12.3229 5.71585 13.1787 6.79508 14.389 7.08011V21.9402C12.2929 21.9402 10.5306 21.9082 10.2335 21.9695C9.09932 22.2082 8.28507 23.2055 8.27791 24.3647V25.2203C8.28817 25.5652 8.56818 25.8412 8.91336 25.8462H21.0869C21.432 25.8412 21.712 25.5652 21.7223 25.2203V24.3647C21.7152 23.2055 20.9009 22.2082 19.7668 21.9695C19.5612 21.9082 17.6174 21.9402 15.6112 21.9402V7.08011C16.3436 6.90704 16.9697 6.43486 17.3378 5.77864L24.2548 7.76355L20.576 15.6435C20.3308 15.7292 20.1666 15.9603 20.1664 16.2198C20.1659 18.2037 21.3616 19.9922 23.1952 20.7496C25.0287 21.5073 27.138 21.0845 28.5379 19.6788C29.4705 18.7693 29.9976 17.5224 30 16.2198C29.9997 15.9462 29.8178 15.7063 29.5545 15.6321ZM4.90129 3.07639L8.02821 9.774H1.7746L4.90129 3.07639ZM4.90129 14.0639C3.10138 14.0744 1.56191 12.773 1.27307 10.9962H8.55744C8.2464 12.7715 6.70382 14.0661 4.90129 14.0639ZM20.5001 24.3647V24.624H9.50012V24.3647C9.50012 23.6908 10.073 23.1573 10.7467 23.1573H19.2535C19.9272 23.1573 20.5001 23.6908 20.5001 24.3647ZM15.0001 5.92903C14.3787 5.9295 13.8254 5.5361 13.6218 4.9491C13.4181 4.3621 13.6089 3.71065 14.0968 3.32608C14.585 2.94151 15.2632 2.90857 15.7862 3.2442C16.3092 3.5796 16.562 4.20956 16.4162 4.81351C16.4006 4.85218 16.3892 4.89205 16.3818 4.93287C16.1829 5.52727 15.6267 5.92831 15.0001 5.92903ZM28.1948 15.5795H21.9412L25.0679 8.88193L28.1948 15.5795ZM25.0679 19.8695C23.268 19.88 21.7285 18.5785 21.4397 16.8018H28.7241C28.413 18.5771 26.8704 19.8716 25.0679 19.8695Z" fill="#33485D"/>
</svg>
