<svg width="20" height="20" fill="none" xmlns="http://www.w3.org/2000/svg"><path d="M19.993 9.607a.42.42 0 00-.44-.41.425.425 0 00-.41.44 9.129 9.129 0 01-2.572 6.719 9.063 9.063 0 01-6.573 2.793.425.425 0 000 .85 9.907 9.907 0 007.185-3.052 9.974 9.974 0 002.81-7.34z" fill="#FFBE48"/><path d="M19.99 9.807a9.931 9.931 0 00-3.216-7.153C12.967-.885 7.005-.885 3.2 2.654A9.94 9.94 0 00.002 9.81a9.928 9.928 0 002.932 7.258.425.425 0 00.61-.008c.117-.124.261-.273.318-.327a.439.439 0 00.056-.048l.94-.938h3.055a.849.849 0 00.795-.544.823.823 0 00-.196-.906 4.33 4.33 0 01-1.28-3.08V7.559c0-.372.142-.709.408-.975.259-.26.614-.407.975-.407h2.743c.372 0 .71.14.976.407.259.258.407.614.407.975v3.658a4.342 4.342 0 01-1.292 3.094.858.858 0 00-.143.926c.138.315.435.51.776.51h3.232a.426.426 0 000-.851l-3.226.005a.04.04 0 01-.007-.02 5.174 5.174 0 001.51-3.664V7.559c0-.585-.239-1.16-.656-1.577a2.216 2.216 0 00-1.577-.656H8.615c-.585 0-1.16.24-1.577.656a2.218 2.218 0 00-.656 1.577v3.658c0 1.388.543 2.696 1.531 3.679H4.681a.426.426 0 00-.301.125l-1.057 1.057a1.835 1.835 0 00-.086.077 9.077 9.077 0 01-2.384-6.33A9.097 9.097 0 013.78 3.277C7.26.04 12.713.04 16.195 3.277a9.09 9.09 0 012.945 6.546 9.071 9.071 0 01-2.68 6.644.425.425 0 00.6.601 9.914 9.914 0 002.93-7.26z" fill="#FFBE48"/></svg>