<svg width="21" height="31" fill="none" xmlns="http://www.w3.org/2000/svg"><path fill-rule="evenodd" clip-rule="evenodd" d="M1.264 5.545l2.126.007c.327-.013.655-.002.98.032a.652.652 0 01.407.37c.178.406.588 3.084.776 3.125h11.345l2.07.005c.31-.031.623-.016.928.044a.727.727 0 01.48.712 4.054 4.054 0 01-.298.889l-.443 1.232c-.47 1.2-.828 2.417-1.316 3.632l-.28.657c-.165.534-.565 2.013-1.089 2.107l-8.747.008c-1.35.14-2.85-.382-3.01.958a1.055 1.055 0 00.77 1.144c.758.08 1.52.095 2.28.045H15.8c.764 0 1.408-.038 1.52.61a.723.723 0 01-.282.667.825.825 0 01-.458.17l-6.661-.004-3.053-.005c-.377.001-.754-.017-1.13-.055a2.48 2.48 0 01-1.127-.568 2.501 2.501 0 01-.808-2.315c.075-.423.256-.82.528-1.152.263-.294.579-.535.932-.71.15-.03.293-.083.427-.157l.013-.018.01-.027a1.198 1.198 0 00-.125-.605l-.424-2.025L4.026 9.31l-.362-1.743-.138-.522c-.16-.255-2.045-.032-2.512-.13a.714.714 0 01-.5-.55.723.723 0 01.252-.7c.156-.074.326-.114.498-.12zm6.428 4.968a17.485 17.485 0 00-1.849.045c.064.468.156.932.278 1.388l.458 2.212.431 1.786c.045.327.125.65.24.96.282.072.576.08.862.026l2.899.005 4.083-.005c.364.053.732.051 1.095-.005l.056-.039c.23-.45.408-.926.532-1.416.436-1.12.837-2.291 1.273-3.44l.53-1.376a.11.11 0 00-.122-.132h-2.432l-8.334-.01zM14.516 23.4c.281-.024.56.066.776.249a1.074 1.074 0 01-.598 1.886 1.072 1.072 0 01-1.135-.743 1.09 1.09 0 01.485-1.272c.15-.06.31-.101.472-.12zm-7.887 0c.283-.007.557.1.761.296a1.076 1.076 0 01-.71 1.849 1.072 1.072 0 01-1.076-.767 1.09 1.09 0 01.469-1.24c.176-.076.364-.122.556-.136V23.4z" fill="#000"/></svg>