<svg width="21" height="18" fill="none" xmlns="http://www.w3.org/2000/svg"><path d="M19.192 1.755C18.247.851 16.94.4 15.274.4c-.461 0-.932.078-1.412.235-.48.156-.926.368-1.339.634-.413.266-.768.515-1.066.749-.297.233-.58.48-.848.743-.268-.262-.55-.51-.848-.743a14.325 14.325 0 00-1.066-.75 5.765 5.765 0 00-1.34-.633A4.536 4.536 0 005.945.4C4.277.4 2.97.85 2.027 1.755 1.082 2.66.609 3.913.609 5.516c0 .489.088.992.262 1.509.175.518.374.959.598 1.323.223.364.476.72.758 1.066.283.346.49.585.62.716s.232.226.307.284l6.964 6.582a.676.676 0 00.491.197.675.675 0 00.491-.197l6.953-6.56c1.704-1.669 2.556-3.309 2.556-4.92 0-1.604-.472-2.857-1.417-3.76zm-2.11 7.653L10.61 15.52 4.125 9.397c-1.392-1.362-2.087-2.656-2.087-3.88 0-.591.08-1.112.24-1.564.16-.452.364-.811.614-1.077.249-.266.552-.483.91-.65a4.1 4.1 0 011.048-.34A6.522 6.522 0 015.944 1.8c.387 0 .804.093 1.25.279.446.186.858.419 1.233.7.376.28.698.543.966.787s.49.468.67.672c.133.16.316.24.546.24.23 0 .413-.08.547-.24a8.54 8.54 0 01.67-.672c.268-.244.59-.507.965-.788.376-.28.787-.513 1.233-.7.447-.185.864-.278 1.25-.278.387 0 .752.03 1.094.087.343.059.692.172 1.05.34.357.167.66.384.909.65.25.266.454.625.614 1.077.16.452.24.973.24 1.563 0 1.225-.7 2.522-2.099 3.892z" fill="#000"/></svg>