<svg width="21" height="21" fill="none" xmlns="http://www.w3.org/2000/svg"><g clip-path="url(#clip0)" fill="#000"><path d="M10.61.185c-5.524 0-10 4.477-10 10s4.476 10 10 10c5.522 0 10-4.477 10-10-.007-5.52-4.48-9.994-10-10zm0 18.572a8.571 8.571 0 118.57-8.572 8.58 8.58 0 01-8.57 8.572z"/><path d="M14.82 9.866a.714.714 0 00-.32-.32L8.786 6.689a.714.714 0 00-1.034.639v5.714a.714.714 0 001.034.64l5.714-2.858a.714.714 0 00.32-.958zm-5.64 2.02V8.485l3.403 1.701-3.402 1.701z"/></g><defs><clipPath id="clip0"><path fill="#fff" transform="translate(.61 .185)" d="M0 0h20v20H0z"/></clipPath></defs></svg>