<svg width="19" height="18" fill="none" xmlns="http://www.w3.org/2000/svg"><g clip-path="url(#clip0)"><path d="M18.656 16.83l-5.31-5.23a7.022 7.022 0 001.614-4.475C14.96 3.196 11.714 0 7.724 0 3.735 0 .49 3.196.49 7.125s3.246 7.125 7.235 7.125a7.267 7.267 0 004.545-1.589l5.31 5.23c.149.146.39.146.539 0l.538-.531a.37.37 0 000-.53zM7.724 12.75c-3.15 0-5.712-2.523-5.712-5.625S4.575 1.5 7.724 1.5c3.15 0 5.713 2.523 5.713 5.625s-2.563 5.625-5.713 5.625z" fill="#33485D"/></g><defs><clipPath id="clip0"><path fill="#fff" transform="translate(.49)" d="M0 0h18.278v18H0z"/></clipPath></defs></svg>