<svg width="1840" height="889" fill="none" xmlns="http://www.w3.org/2000/svg"><mask id="a" style="mask-type:alpha" maskUnits="userSpaceOnUse" x="0" y="0" width="1840" height="889"><path d="M0 22C0 9.85 9.85 0 22 0h1796c12.15 0 22 9.85 22 22v845c0 12.15-9.85 22-22 22H22c-12.15 0-22-9.85-22-22V22z" fill="#323244"/></mask><g mask="url(#a)"><path d="M0 22C0 9.85 9.85 0 22 0h1796c12.15 0 22 9.85 22 22v845c0 12.15-9.85 22-22 22H22c-12.15 0-22-9.85-22-22V22z" fill="url(#paint0_linear)"/><g filter="url(#filter0_b)"><circle transform="matrix(0 1 1 0 39 867)" fill="url(#paint1_radial)" fill-opacity=".2" r="122"/><path d="M39 988c66.826 0 121-54.174 121-121S105.826 746 39 746-82 800.174-82 867s54.174 121 121 121z" stroke="url(#paint2_linear)" stroke-opacity=".3" stroke-width="2"/></g><circle cx="1811" cy="676" r="497" fill="url(#paint3_radial)"/><g filter="url(#filter1_b)"><circle transform="matrix(1 0 0 -1 1810.5 547.496)" fill="url(#paint4_radial)" fill-opacity=".2" r="387.5"/><path d="M2197 547.496c0-213.458-173.04-386.5-386.5-386.5S1424 334.038 1424 547.496s173.04 386.5 386.5 386.5 386.5-173.042 386.5-386.5z" stroke="url(#paint5_linear)" stroke-opacity=".6" stroke-width="2"/></g></g><defs><radialGradient id="paint1_radial" cx="0" cy="0" r="1" gradientUnits="userSpaceOnUse" gradientTransform="rotate(90 0 122) scale(122)"><stop stop-color="#fff" stop-opacity=".21"/><stop offset="1" stop-color="#D8F8FF"/></radialGradient><radialGradient id="paint3_radial" cx="0" cy="0" r="1" gradientUnits="userSpaceOnUse" gradientTransform="matrix(-545.8478 241.90924 -239.14758 -539.61634 1782.31 521.705)"><stop stop-color="#FF6D43"/><stop offset="1" stop-color="red" stop-opacity=".05"/></radialGradient><radialGradient id="paint4_radial" cx="0" cy="0" r="1" gradientUnits="userSpaceOnUse" gradientTransform="rotate(90 0 387.5) scale(387.5)"><stop stop-color="#FE3449"/><stop offset="1" stop-color="#FF374A"/></radialGradient><linearGradient id="paint0_linear" x1="-22" y1="262" x2="1852" y2="889" gradientUnits="userSpaceOnUse"><stop stop-color="#FF7800"/><stop offset="1" stop-color="#FE374A"/></linearGradient><linearGradient id="paint2_linear" x1="4.525" y1="983.333" x2="-24.125" y2="819.302" gradientUnits="userSpaceOnUse"><stop stop-color="#fff"/><stop offset="1" stop-color="#fff" stop-opacity="0"/></linearGradient><linearGradient id="paint5_linear" x1="2180" y1="656.996" x2="1659" y2="747.996" gradientUnits="userSpaceOnUse"><stop stop-color="#fff"/><stop offset="1" stop-color="#fff" stop-opacity="0"/></linearGradient><filter id="filter0_b" x="-203" y="625" width="484" height="484" filterUnits="userSpaceOnUse" color-interpolation-filters="sRGB"><feFlood flood-opacity="0" result="BackgroundImageFix"/><feGaussianBlur in="BackgroundImage" stdDeviation="60"/><feComposite in2="SourceAlpha" operator="in" result="effect1_backgroundBlur"/><feBlend in="SourceGraphic" in2="effect1_backgroundBlur" result="shape"/></filter><filter id="filter1_b" x="1303" y="39.996" width="1015" height="1015" filterUnits="userSpaceOnUse" color-interpolation-filters="sRGB"><feFlood flood-opacity="0" result="BackgroundImageFix"/><feGaussianBlur in="BackgroundImage" stdDeviation="60"/><feComposite in2="SourceAlpha" operator="in" result="effect1_backgroundBlur"/><feBlend in="SourceGraphic" in2="effect1_backgroundBlur" result="shape"/></filter></defs></svg>