<svg width="21" height="18" fill="none" xmlns="http://www.w3.org/2000/svg"><path fill-rule="evenodd" clip-rule="evenodd" d="M20.15 12.395l-2.77-7.067c.51-.334.852-.944.852-1.64 0-1.051-.783-1.907-1.745-1.907-.364 0-.66.322-.66.72 0 .397.296.72.66.72.236 0 .428.21.428.468s-.192.468-.428.468h-5.22V1.313c0-.398-.294-.72-.658-.72-.364 0-.659.322-.659.72v2.844H4.732c-.236 0-.428-.21-.428-.468s.192-.468.428-.468c.364 0 .659-.323.659-.72 0-.398-.295-.72-.66-.72-.962 0-1.745.856-1.745 1.908 0 .696.342 1.305.852 1.639l-2.77 7.067a.716.716 0 00-.459.686c0 2.488 1.85 4.512 4.123 4.512s4.122-2.024 4.122-4.512a.716.716 0 00-.458-.686L5.731 5.597h4.22l.658.849.659-.849h4.22l-2.666 6.798a.717.717 0 00-.458.686c0 2.488 1.85 4.512 4.122 4.512 2.274 0 4.123-2.024 4.123-4.512a.716.716 0 00-.458-.686zm-13.2-.035L4.731 6.705 2.514 12.36H6.95zM2.004 13.8c.296 1.348 1.406 2.352 2.727 2.352 1.32 0 2.43-1.004 2.727-2.351H2.005zm12.264-1.44h4.435l-2.217-5.655-2.218 5.655zm-.51 1.44c.297 1.348 1.407 2.352 2.727 2.352 1.32 0 2.431-1.004 2.728-2.351h-5.455z" fill="#000"/></svg>