<svg viewBox="0 0 1561.333 1706.667" xmlns="http://www.w3.org/2000/svg">
    <style>
        <![CDATA[:root>svg{display:none}:root>svg:target{display:block}]]>
    </style>
    <svg viewBox="0 0 30 28" id="basket" xmlns="http://www.w3.org/2000/svg">
        <path d="M29.875 4.25c-.125-.125-.25-.25-.5-.25H5.625L5 .75c0-.25-.375-.5-.625-.5H.625C.25.25 0 .5 0 .875s.25.625.625.625h3.25l3 15.25c.375 2 2.25 3.5 4.25 3.5H25.5c.375 0 .625-.25.625-.625S25.875 19 25.5 19H11.25c-1 0-2-.5-2.5-1.375l18.25-2.5c.25 0 .5-.25.5-.5l2.5-10s0-.25-.125-.375zm-3.5 9.75-18.25 2.375-2.25-11.25H28.5L26.375 14zm-15.75 7.5A3.095 3.095 0 0 0 7.5 24.625a3.095 3.095 0 0 0 3.125 3.125 3.095 3.095 0 0 0 3.125-3.125 3.095 3.095 0 0 0-3.125-3.125zm0 5c-1 0-1.875-.875-1.875-1.875s.875-1.875 1.875-1.875 1.875.875 1.875 1.875-.875 1.875-1.875 1.875zm12.5-5A3.095 3.095 0 0 0 20 24.625a3.095 3.095 0 0 0 3.125 3.125 3.095 3.095 0 0 0 3.125-3.125 3.095 3.095 0 0 0-3.125-3.125zm0 5c-1 0-1.875-.875-1.875-1.875s.875-1.875 1.875-1.875S25 23.625 25 24.625s-.875 1.875-1.875 1.875z"/>
    </svg>
    <svg viewBox="0 0 21 21" id="buy-weapon" xmlns="http://www.w3.org/2000/svg">
        <path fill-rule="evenodd" clip-rule="evenodd" d="M1.264.545 3.39.552c.327-.013.655-.002.98.032a.652.652 0 0 1 .407.37c.178.406.588 3.084.776 3.125h11.345l2.07.005c.31-.031.623-.016.928.044a.727.727 0 0 1 .48.712 4.054 4.054 0 0 1-.298.889l-.443 1.232c-.47 1.2-.828 2.417-1.316 3.632l-.28.657c-.165.534-.565 2.013-1.089 2.107l-8.747.008c-1.35.14-2.85-.382-3.01.958a1.055 1.055 0 0 0 .77 1.144c.758.08 1.52.095 2.28.045H15.8c.764 0 1.408-.038 1.52.61a.723.723 0 0 1-.282.667.825.825 0 0 1-.458.17l-6.661-.004-3.053-.005c-.377.001-.754-.017-1.13-.055a2.48 2.48 0 0 1-1.127-.568 2.501 2.501 0 0 1-.808-2.315c.075-.423.256-.82.528-1.152.263-.294.579-.535.932-.71.15-.03.293-.083.427-.157l.013-.018.01-.027a1.198 1.198 0 0 0-.125-.605l-.424-2.025L4.026 4.31l-.362-1.743-.138-.522c-.16-.255-2.045-.032-2.512-.13a.714.714 0 0 1-.5-.55.723.723 0 0 1 .252-.7c.156-.074.326-.114.498-.12zm6.428 4.968a17.496 17.496 0 0 0-1.849.045c.064.468.156.932.278 1.388l.458 2.212.431 1.786c.045.327.125.65.24.96.282.072.576.08.862.026l2.899.005 4.083-.005c.364.053.732.051 1.095-.005l.056-.039c.23-.45.408-.926.532-1.416.436-1.12.837-2.291 1.273-3.44l.53-1.376a.11.11 0 0 0-.122-.132h-2.432l-8.334-.01zM14.516 18.4c.281-.024.56.066.776.249a1.074 1.074 0 0 1-.598 1.886 1.072 1.072 0 0 1-1.135-.743 1.09 1.09 0 0 1 .485-1.272c.15-.06.31-.101.472-.12zm-7.887 0c.283-.007.557.1.761.296a1.076 1.076 0 0 1-.71 1.849 1.072 1.072 0 0 1-1.076-.767 1.09 1.09 0 0 1 .469-1.24c.176-.076.364-.122.556-.136V18.4z"/>
    </svg>
    <svg viewBox="0 0 21 21" id="cart" xmlns="http://www.w3.org/2000/svg">
        <path fill-rule="evenodd" clip-rule="evenodd" d="M1.264.545 3.39.552c.327-.013.655-.002.98.032a.652.652 0 0 1 .407.37c.178.406.588 3.084.776 3.125h11.345l2.07.005c.31-.031.623-.016.928.044a.727.727 0 0 1 .48.712 4.054 4.054 0 0 1-.298.889l-.443 1.232c-.47 1.2-.828 2.417-1.316 3.632l-.28.657c-.165.534-.565 2.013-1.089 2.107l-8.747.008c-1.35.14-2.85-.382-3.01.958a1.055 1.055 0 0 0 .77 1.144c.758.08 1.52.095 2.28.045H15.8c.764 0 1.408-.038 1.52.61a.723.723 0 0 1-.282.667.825.825 0 0 1-.458.17l-6.661-.004-3.053-.005c-.377.001-.754-.017-1.13-.055a2.48 2.48 0 0 1-1.127-.568 2.501 2.501 0 0 1-.808-2.315c.075-.423.256-.82.528-1.152.263-.294.579-.535.932-.71.15-.03.293-.083.427-.157l.013-.018.01-.027a1.198 1.198 0 0 0-.125-.605l-.424-2.025L4.026 4.31l-.362-1.743-.138-.522c-.16-.255-2.045-.032-2.512-.13a.714.714 0 0 1-.5-.55.723.723 0 0 1 .252-.7c.156-.074.326-.114.498-.12zm6.428 4.968a17.496 17.496 0 0 0-1.849.045c.064.468.156.932.278 1.388l.458 2.212.431 1.786c.045.327.125.65.24.96.282.072.576.08.862.026l2.899.005 4.083-.005c.364.053.732.051 1.095-.005l.056-.039c.23-.45.408-.926.532-1.416.436-1.12.837-2.291 1.273-3.44l.53-1.376a.11.11 0 0 0-.122-.132h-2.432l-8.334-.01zM14.516 18.4c.281-.024.56.066.776.249a1.074 1.074 0 0 1-.598 1.886 1.072 1.072 0 0 1-1.135-.743 1.09 1.09 0 0 1 .485-1.272c.15-.06.31-.101.472-.12zm-7.887 0c.283-.007.557.1.761.296a1.076 1.076 0 0 1-.71 1.849 1.072 1.072 0 0 1-1.076-.767 1.09 1.09 0 0 1 .469-1.24c.176-.076.364-.122.556-.136V18.4z"/>
    </svg>
    <svg viewBox="0 0 20 20" id="clock" xmlns="http://www.w3.org/2000/svg">
        <path d="M10 19a9 9 0 1 0 0-18 9 9 0 0 0 0 18z" stroke="#6A677B" stroke-miterlimit="10" stroke-linecap="round" stroke-linejoin="round"/>
        <path d="M10 10.87a.871.871 0 1 0 0-1.741.871.871 0 0 0 0 1.742zM7.097 7.097 9.13 9.129m5.516-3.775L10.872 9.13M10 3.322v1.162m0 11.032v1.16M15.517 10h1.16M3.323 10h1.16" stroke="#6A677B" stroke-miterlimit="10" stroke-linecap="round" stroke-linejoin="round"/>
    </svg>
    <svg viewBox="0 0 20 20" id="enter" xmlns="http://www.w3.org/2000/svg">
        <path d="M19.993 9.607a.42.42 0 0 0-.44-.41.425.425 0 0 0-.41.44 9.129 9.129 0 0 1-2.572 6.719 9.063 9.063 0 0 1-6.573 2.793.425.425 0 0 0 0 .85 9.907 9.907 0 0 0 7.185-3.052 9.974 9.974 0 0 0 2.81-7.34z"/>
        <path d="M19.99 9.807a9.931 9.931 0 0 0-3.216-7.153C12.967-.885 7.005-.885 3.2 2.654A9.94 9.94 0 0 0 .002 9.81a9.928 9.928 0 0 0 2.932 7.258.425.425 0 0 0 .61-.008c.117-.124.261-.273.318-.327a.439.439 0 0 0 .056-.048l.94-.938h3.055a.849.849 0 0 0 .795-.544.823.823 0 0 0-.196-.906 4.33 4.33 0 0 1-1.28-3.08V7.559c0-.372.142-.709.408-.975.259-.26.614-.407.975-.407h2.743c.372 0 .71.14.976.407.259.258.407.614.407.975v3.658a4.342 4.342 0 0 1-1.292 3.094.858.858 0 0 0-.143.926c.138.315.435.51.776.51h3.232a.426.426 0 0 0 0-.851l-3.226.005a.04.04 0 0 1-.007-.02 5.174 5.174 0 0 0 1.51-3.664V7.559c0-.585-.239-1.16-.656-1.577a2.216 2.216 0 0 0-1.577-.656H8.615c-.585 0-1.16.24-1.577.656a2.218 2.218 0 0 0-.656 1.577v3.658c0 1.388.543 2.696 1.531 3.679H4.681a.426.426 0 0 0-.301.125l-1.057 1.057a1.835 1.835 0 0 0-.086.077 9.077 9.077 0 0 1-2.384-6.33A9.097 9.097 0 0 1 3.78 3.277C7.26.04 12.713.04 16.195 3.277a9.09 9.09 0 0 1 2.945 6.546 9.071 9.071 0 0 1-2.68 6.644.425.425 0 0 0 .6.601 9.914 9.914 0 0 0 2.93-7.26z"/>
    </svg>
    <svg viewBox="0 0 12 24" id="fb" xmlns="http://www.w3.org/2000/svg">
        <path opacity=".5" d="M7.5 8.25v-3c0-.83.67-1.5 1.5-1.5h1.5V0h-3A4.501 4.501 0 0 0 3 4.5v3.75H0V12h3v12h4.5V12h3L12 8.25H7.5z"/>
    </svg>
    <svg version="1.0" viewBox="0 0 1171 1280" id="filtr" xmlns="http://www.w3.org/2000/svg">
        <path d="M531 .6C313 7.2 137.2 42.9 55.6 97.1 20.2 120.6 2.1 146.4.3 176c-1.9 31.2 16 60.5 51.9 85.1 7.3 5 18.9 16.4 69.5 68.7 33.5 34.5 75.7 78 93.8 96.7 18.2 18.7 85.4 88.2 149.5 154.4l116.5 120.3.5 276.2.5 276.1 2.5 5c3.6 7.4 12.3 15.7 19.5 18.6l6 2.4h144l6.2-2.9c7.3-3.3 14.7-10.7 18.4-18.1l2.4-5 .5-274.6.5-274.6 74-75.4c40.7-41.5 86.1-87.8 101-102.9 27.5-28 93.4-95.2 185-188.5 28-28.6 55.5-56.7 61-62.3 5.5-5.7 14.3-13.3 19.5-17 12.2-8.6 27.1-23.5 33.9-34l5.4-8.2h8.7v-72h-5c-2.7 0-5-.4-5-.9 0-1.5-8.9-14.2-13.4-19.1-36.2-39.6-110.6-71.3-218.1-92.9C884.3 22 828.5 13.9 777 9 715.1 3.2 668.8 1 599 .6c-31.1-.2-61.7-.2-68 0z"/>
    </svg>
    <svg viewBox="0 0 22 22" id="insta" xmlns="http://www.w3.org/2000/svg">
        <path opacity=".5" d="M21.444 3.084a4.144 4.144 0 0 0-1.004-1.542A4.141 4.141 0 0 0 18.9.538c-.475-.182-1.186-.401-2.49-.465C14.995.018 14.576 0 10.99 0 7.415 0 6.987.01 5.573.082c-1.304.055-2.016.274-2.49.456A4.141 4.141 0 0 0 1.54 1.542 4.144 4.144 0 0 0 .538 3.084C.356 3.56.137 4.27.073 5.575.018 6.99 0 7.418 0 10.995c0 3.587.018 4.006.082 5.42.064 1.305.274 2.017.465 2.492a4.144 4.144 0 0 0 1.004 1.542c.428.447.957.784 1.541 1.003.474.183 1.186.402 2.49.466C6.996 21.982 7.415 22 11 22s4.004-.01 5.418-.082c1.304-.064 2.016-.274 2.49-.465a4.428 4.428 0 0 0 2.545-2.546c.182-.475.401-1.187.465-2.491.064-1.415.082-1.844.082-5.42 0-3.587-.01-4.006-.082-5.42-.073-1.306-.292-2.017-.474-2.492zm-10.453 14.8a6.888 6.888 0 0 1-6.887-6.889 6.888 6.888 0 1 1 13.773 0 6.888 6.888 0 0 1-6.886 6.89zm7.16-12.436a1.607 1.607 0 0 1 0-3.212 1.607 1.607 0 0 1 0 3.212z"/>
    </svg>
    <svg viewBox="0 0 30 26" id="libra" xmlns="http://www.w3.org/2000/svg">
        <path d="m29.555 15.632-3.422-7.33 1.477.424a.61.61 0 1 0 .337-1.174L17.676 4.604l.003-.132a2.678 2.678 0 0 0-5.017-1.307L2.39.218a.611.611 0 0 0-.337 1.175l2.028.582L.409 9.838a.611.611 0 0 0-.409.577 4.9 4.9 0 0 0 8.371 3.458 4.843 4.843 0 0 0 1.462-3.458.611.611 0 0 0-.445-.588L5.976 2.519l6.348 1.821a2.683 2.683 0 0 0 2.065 2.74v14.86c-2.096 0-3.858-.032-4.155.03a2.463 2.463 0 0 0-1.956 2.395v.855c.01.345.29.621.635.626h12.174a.645.645 0 0 0 .635-.626v-.855a2.463 2.463 0 0 0-1.955-2.395c-.206-.062-2.15-.03-4.156-.03V7.08a2.689 2.689 0 0 0 1.727-1.301l6.917 1.985-3.679 7.88a.611.611 0 0 0-.41.576 4.9 4.9 0 0 0 8.372 3.459A4.844 4.844 0 0 0 30 16.219a.611.611 0 0 0-.445-.587zM4.9 3.076l3.127 6.698H1.775L4.9 3.076zm0 10.988a3.654 3.654 0 0 1-3.628-3.068h7.284A3.707 3.707 0 0 1 4.9 14.064zm15.6 10.3v.26h-11v-.26c0-.673.572-1.207 1.246-1.207h8.506c.674 0 1.247.534 1.247 1.208zM15 5.93a1.458 1.458 0 1 1 1.415-1.115.608.608 0 0 0-.034.119A1.459 1.459 0 0 1 15 5.929zm13.194 9.65H21.94l3.127-6.697 3.127 6.697zm-3.127 4.29a3.654 3.654 0 0 1-3.628-3.067h7.284a3.708 3.708 0 0 1-3.656 3.067z"/>
    </svg>
    <svg viewBox="0 0 21 18" id="libra-weapon" xmlns="http://www.w3.org/2000/svg">
        <path fill-rule="evenodd" clip-rule="evenodd" d="m20.15 12.395-2.77-7.067c.51-.334.852-.944.852-1.64 0-1.051-.783-1.907-1.745-1.907-.364 0-.66.322-.66.72 0 .397.296.72.66.72.236 0 .428.21.428.468s-.192.468-.428.468h-5.22V1.313c0-.398-.294-.72-.658-.72-.364 0-.659.322-.659.72v2.844H4.732c-.236 0-.428-.21-.428-.468s.192-.468.428-.468c.364 0 .659-.323.659-.72 0-.398-.295-.72-.66-.72-.962 0-1.745.856-1.745 1.908 0 .696.342 1.305.852 1.639l-2.77 7.067a.716.716 0 0 0-.459.686c0 2.488 1.85 4.512 4.123 4.512s4.122-2.024 4.122-4.512a.716.716 0 0 0-.458-.686L5.731 5.597h4.22l.658.849.659-.849h4.22l-2.666 6.798a.717.717 0 0 0-.458.686c0 2.488 1.85 4.512 4.122 4.512 2.274 0 4.123-2.024 4.123-4.512a.716.716 0 0 0-.458-.686zm-13.2-.035L4.731 6.705 2.514 12.36H6.95zM2.004 13.8c.296 1.348 1.406 2.352 2.727 2.352 1.32 0 2.43-1.004 2.727-2.351H2.005zm12.264-1.44h4.435l-2.217-5.655-2.218 5.655zm-.51 1.44c.297 1.348 1.407 2.352 2.727 2.352 1.32 0 2.431-1.004 2.728-2.351h-5.455z"/>
    </svg>
    <svg viewBox="0 0 30 24" id="like" xmlns="http://www.w3.org/2000/svg">
        <path d="M29.536 4.826C28.546 2.14 26.174.382 23.348.24l-.033-.001h-.414c-3.568 0-6.633 2.197-7.912 5.309-1.28-3.113-4.344-5.31-7.912-5.31H6.63C3.81.383 1.446 2.142.46 4.83c-1.017 2.775-.324 5.742 1.807 7.74l11.21 10.603a2.3 2.3 0 0 0 1.539.59c.554 0 1.104-.2 1.526-.6l1.704-1.608a2.3 2.3 0 0 0 .682-1.588 2.201 2.201 0 0 0-.65-1.612.638.638 0 0 0-.902.902.972.972 0 0 1-.018 1.382l-1.692 1.596c-.362.343-.95.337-1.325 0L3.142 11.64C1.39 9.996.823 7.554 1.66 5.268c.804-2.194 2.727-3.632 5.02-3.754h.398c4.01 0 7.274 3.263 7.274 7.274a.638.638 0 0 0 1.276 0c0-4.011 3.263-7.274 7.274-7.274h.398c2.3.123 4.23 1.56 5.04 3.754.84 2.278.275 4.72-1.487 6.387l-3.573 3.573a2.23 2.23 0 0 0-.666 1.583c0 .593.237 1.155.666 1.584a.638.638 0 1 0 .902-.902.962.962 0 0 1-.291-.682c0-.251.103-.493.291-.681l3.56-3.56c2.127-2.012 2.814-4.979 1.795-7.744z"/>
    </svg>
    <svg viewBox="0 0 21 18" id="like-weapon" xmlns="http://www.w3.org/2000/svg">
        <path d="M19.192 1.755C18.247.851 16.94.4 15.274.4c-.461 0-.932.078-1.412.235-.48.156-.926.368-1.339.634-.413.266-.768.515-1.066.749-.297.233-.58.48-.848.743-.268-.262-.55-.51-.848-.743a14.325 14.325 0 0 0-1.066-.75 5.765 5.765 0 0 0-1.34-.633A4.536 4.536 0 0 0 5.945.4C4.277.4 2.97.85 2.027 1.755 1.082 2.66.609 3.913.609 5.516c0 .489.088.992.262 1.509.175.518.374.959.598 1.323.223.364.476.72.758 1.066.283.346.49.585.62.716s.232.226.307.284l6.964 6.582a.676.676 0 0 0 .491.197.675.675 0 0 0 .491-.197l6.953-6.56c1.704-1.669 2.556-3.309 2.556-4.92 0-1.604-.472-2.857-1.417-3.76zm-2.11 7.653L10.61 15.52 4.125 9.397c-1.392-1.362-2.087-2.656-2.087-3.88 0-.591.08-1.112.24-1.564.16-.452.364-.811.614-1.077.249-.266.552-.483.91-.65a4.1 4.1 0 0 1 1.048-.34A6.522 6.522 0 0 1 5.944 1.8c.387 0 .804.093 1.25.279.446.186.858.419 1.233.7.376.28.698.543.966.787s.49.468.67.672c.133.16.316.24.546.24.23 0 .413-.08.547-.24a8.54 8.54 0 0 1 .67-.672c.268-.244.59-.507.965-.788.376-.28.787-.513 1.233-.7.447-.185.864-.278 1.25-.278.387 0 .752.03 1.094.087.343.059.692.172 1.05.34.357.167.66.384.909.65.25.266.454.625.614 1.077.16.452.24.973.24 1.563 0 1.225-.7 2.522-2.099 3.892z"/>
    </svg>
    <svg viewBox="0 0 20 20" id="mobile-enter" xmlns="http://www.w3.org/2000/svg">
        <path d="M19.993 9.607a.42.42 0 0 0-.44-.41.425.425 0 0 0-.41.44 9.129 9.129 0 0 1-2.572 6.719 9.063 9.063 0 0 1-6.573 2.793.425.425 0 0 0 0 .85 9.907 9.907 0 0 0 7.185-3.052 9.974 9.974 0 0 0 2.81-7.34z"/>
        <path d="M19.99 9.807a9.931 9.931 0 0 0-3.216-7.153C12.967-.885 7.005-.885 3.2 2.654A9.94 9.94 0 0 0 .002 9.81a9.928 9.928 0 0 0 2.932 7.258.425.425 0 0 0 .61-.008c.117-.124.261-.273.318-.327a.439.439 0 0 0 .056-.048l.94-.938h3.055a.849.849 0 0 0 .795-.544.823.823 0 0 0-.196-.906 4.33 4.33 0 0 1-1.28-3.08V7.559c0-.372.142-.709.408-.975.259-.26.614-.407.975-.407h2.743c.372 0 .71.14.976.407.259.258.407.614.407.975v3.658a4.342 4.342 0 0 1-1.292 3.094.858.858 0 0 0-.143.926c.138.315.435.51.776.51h3.232a.426.426 0 0 0 0-.851l-3.226.005a.04.04 0 0 1-.007-.02 5.174 5.174 0 0 0 1.51-3.664V7.559c0-.585-.239-1.16-.656-1.577a2.216 2.216 0 0 0-1.577-.656H8.615c-.585 0-1.16.24-1.577.656a2.218 2.218 0 0 0-.656 1.577v3.658c0 1.388.543 2.696 1.531 3.679H4.681a.426.426 0 0 0-.301.125l-1.057 1.057a1.835 1.835 0 0 0-.086.077 9.077 9.077 0 0 1-2.384-6.33A9.097 9.097 0 0 1 3.78 3.277C7.26.04 12.713.04 16.195 3.277a9.09 9.09 0 0 1 2.945 6.546 9.071 9.071 0 0 1-2.68 6.644.425.425 0 0 0 .6.601 9.914 9.914 0 0 0 2.93-7.26z"/>
    </svg>
    <svg viewBox="0 0 30 26" id="mobile-libra" xmlns="http://www.w3.org/2000/svg">
        <path d="m29.555 15.632-3.422-7.33 1.477.424a.61.61 0 1 0 .337-1.174L17.676 4.604l.003-.132a2.678 2.678 0 0 0-5.017-1.307L2.39.218a.611.611 0 0 0-.337 1.175l2.028.582L.409 9.838a.611.611 0 0 0-.409.577 4.9 4.9 0 0 0 8.371 3.458 4.843 4.843 0 0 0 1.462-3.458.611.611 0 0 0-.445-.588L5.976 2.519l6.348 1.821a2.683 2.683 0 0 0 2.065 2.74v14.86c-2.096 0-3.858-.032-4.155.03a2.463 2.463 0 0 0-1.956 2.395v.855c.01.345.29.621.635.626h12.174a.645.645 0 0 0 .635-.626v-.855a2.463 2.463 0 0 0-1.955-2.395c-.206-.062-2.15-.03-4.156-.03V7.08a2.689 2.689 0 0 0 1.727-1.301l6.917 1.985-3.679 7.88a.611.611 0 0 0-.41.576 4.9 4.9 0 0 0 8.372 3.459A4.844 4.844 0 0 0 30 16.219a.611.611 0 0 0-.445-.587zM4.9 3.076l3.127 6.698H1.775L4.9 3.076zm0 10.988a3.654 3.654 0 0 1-3.628-3.068h7.284A3.707 3.707 0 0 1 4.9 14.064zm15.6 10.3v.26h-11v-.26c0-.673.572-1.207 1.246-1.207h8.506c.674 0 1.247.534 1.247 1.208zM15 5.93a1.458 1.458 0 1 1 1.415-1.115.608.608 0 0 0-.034.119A1.459 1.459 0 0 1 15 5.929zm13.194 9.65H21.94l3.127-6.697 3.127 6.697zm-3.127 4.29a3.654 3.654 0 0 1-3.628-3.067h7.284a3.708 3.708 0 0 1-3.656 3.067z"/>
    </svg>
    <svg viewBox="0 0 30 24" id="mobile-like" xmlns="http://www.w3.org/2000/svg">
        <path d="M29.536 4.826C28.546 2.14 26.174.382 23.348.24l-.033-.001h-.414c-3.568 0-6.633 2.197-7.912 5.309-1.28-3.113-4.344-5.31-7.912-5.31H6.63C3.81.383 1.446 2.142.46 4.83c-1.017 2.775-.324 5.742 1.807 7.74l11.21 10.603a2.3 2.3 0 0 0 1.539.59c.554 0 1.104-.2 1.526-.6l1.704-1.608a2.3 2.3 0 0 0 .682-1.588 2.201 2.201 0 0 0-.65-1.612.638.638 0 0 0-.902.902.972.972 0 0 1-.018 1.382l-1.692 1.596c-.362.343-.95.337-1.325 0L3.142 11.64C1.39 9.996.823 7.554 1.66 5.268c.804-2.194 2.727-3.632 5.02-3.754h.398c4.01 0 7.274 3.263 7.274 7.274a.638.638 0 0 0 1.276 0c0-4.011 3.263-7.274 7.274-7.274h.398c2.3.123 4.23 1.56 5.04 3.754.84 2.278.275 4.72-1.487 6.387l-3.573 3.573a2.23 2.23 0 0 0-.666 1.583c0 .593.237 1.155.666 1.584a.638.638 0 1 0 .902-.902.962.962 0 0 1-.291-.682c0-.251.103-.493.291-.681l3.56-3.56c2.127-2.012 2.814-4.979 1.795-7.744z"/>
    </svg>
    <svg viewBox="0 0 21 21" id="play-weapon" xmlns="http://www.w3.org/2000/svg">
        <g clip-path="url(#pclip0_192_909)">
            <path d="M10.61.185c-5.524 0-10 4.477-10 10s4.476 10 10 10c5.522 0 10-4.477 10-10-.007-5.52-4.48-9.994-10-10zm0 18.572a8.571 8.571 0 1 1 8.57-8.572 8.58 8.58 0 0 1-8.57 8.572z"/>
            <path d="M14.82 9.866a.714.714 0 0 0-.32-.32L8.786 6.689a.714.714 0 0 0-1.034.639v5.714a.714.714 0 0 0 1.034.64l5.714-2.858a.714.714 0 0 0 .32-.958zm-5.64 2.02V8.485l3.403 1.701-3.402 1.701z"/>
        </g>
        <defs>
            <clipPath id="pclip0_192_909">
                <path transform="translate(.61 .185)" d="M0 0h20v20H0z"/>
            </clipPath>
        </defs>
    </svg>
    <svg viewBox="0 0 19 18" id="search" xmlns="http://www.w3.org/2000/svg">
        <g clip-path="url(#qclip0)">
            <path d="m18.656 16.83-5.31-5.23a7.022 7.022 0 0 0 1.614-4.475C14.96 3.196 11.714 0 7.724 0 3.735 0 .49 3.196.49 7.125s3.246 7.125 7.235 7.125a7.267 7.267 0 0 0 4.545-1.589l5.31 5.23c.149.146.39.146.539 0l.538-.531a.37.37 0 0 0 0-.53zM7.724 12.75c-3.15 0-5.712-2.523-5.712-5.625S4.575 1.5 7.724 1.5c3.15 0 5.713 2.523 5.713 5.625s-2.563 5.625-5.713 5.625z"/>
        </g>
        <defs>
            <clipPath id="qclip0">
                <path transform="translate(.49)" d="M0 0h18.278v18H0z"/>
            </clipPath>
        </defs>
    </svg>
    <svg viewBox="0 0 29 23" id="select-categories" xmlns="http://www.w3.org/2000/svg">
        <path d="M1.5 2H27m0 19.5H1.5m0-10H17" stroke="#fff" stroke-width="3" stroke-linecap="round"/>
    </svg>
    <svg data-name="Layer 1" viewBox="0 0 48 48" id="sort-list" xmlns="http://www.w3.org/2000/svg">
        <path d="M47 12a2 2 0 0 0-2-2H24a2 2 0 0 0 0 4h21a2 2 0 0 0 2-2zM3 14h5.35a6 6 0 1 0 0-4H3a2 2 0 0 0 0 4zm11-4a2 2 0 1 1-2 2 2 2 0 0 1 2-2zm31 12h-7.35a6 6 0 1 0 0 4H45a2 2 0 0 0 0-4zm-13 4a2 2 0 1 1 2-2 2 2 0 0 1-2 2zm-10-4H3a2 2 0 0 0 0 4h19a2 2 0 0 0 0-4zm23 12H28a2 2 0 0 0 0 4h17a2 2 0 0 0 0-4zm-27-4a6 6 0 0 0-5.65 4H3a2 2 0 0 0 0 4h9.35A6 6 0 1 0 18 30zm0 8a2 2 0 1 1 2-2 2 2 0 0 1-2 2z"/>
    </svg>
    <svg viewBox="0 0 30 28" id="top-cart" xmlns="http://www.w3.org/2000/svg">
        <path d="M29.875 4.25c-.125-.125-.25-.25-.5-.25H5.625L5 .75c0-.25-.375-.5-.625-.5H.625C.25.25 0 .5 0 .875s.25.625.625.625h3.25l3 15.25c.375 2 2.25 3.5 4.25 3.5H25.5c.375 0 .625-.25.625-.625S25.875 19 25.5 19H11.25c-1 0-2-.5-2.5-1.375l18.25-2.5c.25 0 .5-.25.5-.5l2.5-10s0-.25-.125-.375zm-3.5 9.75-18.25 2.375-2.25-11.25H28.5L26.375 14zm-15.75 7.5A3.095 3.095 0 0 0 7.5 24.625a3.095 3.095 0 0 0 3.125 3.125 3.095 3.095 0 0 0 3.125-3.125 3.095 3.095 0 0 0-3.125-3.125zm0 5c-1 0-1.875-.875-1.875-1.875s.875-1.875 1.875-1.875 1.875.875 1.875 1.875-.875 1.875-1.875 1.875zm12.5-5A3.095 3.095 0 0 0 20 24.625a3.095 3.095 0 0 0 3.125 3.125 3.095 3.095 0 0 0 3.125-3.125 3.095 3.095 0 0 0-3.125-3.125zm0 5c-1 0-1.875-.875-1.875-1.875s.875-1.875 1.875-1.875S25 23.625 25 24.625s-.875 1.875-1.875 1.875z"/>
    </svg>
    <svg viewBox="0 0 22 18" id="twit" xmlns="http://www.w3.org/2000/svg">
        <path opacity=".5" d="M22 2.116a9 9 0 0 1-2.592.711A4.527 4.527 0 0 0 21.392.33a9.04 9.04 0 0 1-2.866 1.095 4.514 4.514 0 0 0-7.691 4.117A12.814 12.814 0 0 1 1.532.826a4.492 4.492 0 0 0-.612 2.27c0 1.565.797 2.947 2.008 3.756a4.496 4.496 0 0 1-2.044-.564v.056a4.516 4.516 0 0 0 3.62 4.426 4.518 4.518 0 0 1-2.038.077 4.518 4.518 0 0 0 4.216 3.135 9.057 9.057 0 0 1-5.605 1.932c-.365 0-.724-.021-1.077-.063a12.776 12.776 0 0 0 6.919 2.028C15.22 17.879 19.76 11 19.76 5.037c0-.196-.005-.39-.013-.584A9.173 9.173 0 0 0 22 2.116z"/>
    </svg>
    <svg viewBox="0 0 26 18" id="youtube" xmlns="http://www.w3.org/2000/svg">
        <path opacity=".5" d="M24.895 1.722C24.19.468 23.425.237 21.866.15 20.309.044 16.395 0 13.003 0 9.605 0 5.69.044 4.134.148 2.579.238 1.812.466 1.1 1.723.374 2.974 0 5.133 0 8.932v.014c0 3.783.374 5.957 1.1 7.197.712 1.254 1.477 1.482 3.032 1.587 1.557.091 5.473.145 8.871.145 3.392 0 7.306-.054 8.865-.143 1.558-.106 2.323-.333 3.029-1.588C25.63 14.904 26 12.73 26 8.947v-.013c0-3.8-.37-5.959-1.105-7.211zM9.75 13.813v-9.75l8.125 4.875-8.125 4.876z"/>
    </svg>
</svg>
