<svg width="30" height="28" viewBox="0 0 30 28" fill="none" xmlns="http://www.w3.org/2000/svg">
<path d="M29.8751 4.24999C29.7501 4.12501 29.6251 3.99997 29.3751 3.99997H5.62507L5.00005 0.750011C5.00005 0.499992 4.62505 0.250031 4.37503 0.250031H0.62503C0.250088 0.249972 6.86646e-05 0.499992 6.86646e-05 0.874992C6.86646e-05 1.24999 0.250088 1.50001 0.625088 1.50001H3.87511L6.87511 16.75C7.25011 18.75 9.12511 20.25 11.1251 20.25H25.5001C25.8751 20.25 26.1251 20 26.1251 19.625C26.1251 19.25 25.8751 19 25.5001 19H11.2501C10.25 19 9.25009 18.5 8.75005 17.625L27.0001 15.125C27.2501 15.125 27.5 14.875 27.5 14.625L30.0001 4.62499C30.0001 4.62499 30.0001 4.37498 29.8751 4.24999ZM26.375 14L8.12503 16.375L5.87503 5.12498H28.5001L26.375 14Z"/>
<path d="M10.625 21.5C8.87509 21.5 7.50007 22.875 7.50007 24.625C7.50007 26.375 8.87509 27.75 10.625 27.75C12.3751 27.75 13.75 26.3749 13.75 24.625C13.7501 22.875 12.3751 21.5 10.625 21.5ZM10.625 26.5C9.62503 26.5 8.75005 25.6249 8.75005 24.625C8.75005 23.625 9.62503 22.75 10.625 22.75C11.6251 22.75 12.5 23.625 12.5 24.625C12.5 25.6249 11.6251 26.5 10.625 26.5Z"/>
<path d="M23.1251 21.5C21.3751 21.5 20.0001 22.875 20.0001 24.625C20.0001 26.375 21.3751 27.75 23.1251 27.75C24.8751 27.75 26.2501 26.3749 26.2501 24.625C26.2501 22.875 24.875 21.5 23.1251 21.5ZM23.1251 26.5C22.1251 26.5 21.2501 25.6249 21.2501 24.625C21.2501 23.625 22.1251 22.75 23.1251 22.75C24.1251 22.75 25.0001 23.625 25.0001 24.625C25.0001 25.6249 24.125 26.5 23.1251 26.5Z"/>
</svg>
