<svg width="20" height="20" viewBox="0 0 20 20" fill="none" xmlns="http://www.w3.org/2000/svg">
<g clip-path="url(#clip0)">
<path d="M18.9993 13.2046H17.08L16.5413 17.2693C16.4642 17.815 15.963 18.1977 15.4162 18.1282L0.868838 16.2003C0.605203 16.1649 0.366461 16.0261 0.205395 15.8143C0.0436202 15.604 -0.0270103 15.3376 0.00926392 15.0748L1.23675 5.81765C1.30196 5.3191 1.72695 4.94635 2.22975 4.94673C2.27282 4.94681 2.3158 4.94973 2.3585 4.9554L3.32214 5.08249V2.86434C3.32214 2.31168 3.77015 1.86367 4.32281 1.86367H18.9993C19.5519 1.86367 19.9999 2.31168 19.9999 2.86434V12.2039C19.9999 12.7566 19.5519 13.2046 18.9993 13.2046ZM16.4072 13.2046H13.8025L16.3622 13.5438L16.4072 13.2046ZM0.669705 15.1649C0.657988 15.252 0.681754 15.3401 0.735749 15.4094C0.789409 15.4807 0.869421 15.5276 0.957897 15.5395L15.5026 17.4668C15.6855 17.49 15.8533 17.3624 15.8799 17.1799L16.0116 16.1866L0.801459 14.1696L0.669705 15.1649ZM3.32214 5.75527L2.27277 5.61684C2.09015 5.59258 1.92246 5.72095 1.89819 5.90358C1.89819 5.90362 1.89819 5.90366 1.89819 5.9037L1.15403 11.5268L3.32214 11.8133V5.75527ZM3.36617 12.4918L1.06463 12.1882L0.889518 13.5078L16.0997 15.5251L16.1997 14.7606L16.2738 14.2053L8.72575 13.2046H4.32281C3.88168 13.2038 3.49309 12.9143 3.36617 12.4918ZM19.3328 2.86434C19.3328 2.68013 19.1835 2.53078 18.9993 2.53078H4.32281C4.1386 2.53078 3.98925 2.68013 3.98925 2.86434V12.1939C3.98925 12.1972 3.99092 12.2006 3.99092 12.2039C3.99092 12.3881 4.14027 12.5375 4.32448 12.5375H18.9993C19.1835 12.5375 19.3328 12.3881 19.3328 12.2039V2.86434Z" fill="#219653"/>
<path d="M14.6451 8.19353C14.7792 8.29252 14.8977 8.41101 14.9966 8.5451C15.545 7.8069 16.5881 7.65304 17.3263 8.2015C18.0645 8.74991 18.2183 9.79294 17.6699 10.5311C17.3552 10.9547 16.8585 11.204 16.3309 11.2033C15.8038 11.2018 15.3088 10.9504 14.9966 10.5258C14.4497 11.2669 13.4055 11.4243 12.6644 10.8774C11.9233 10.3304 11.7659 9.28627 12.3128 8.5451C12.8598 7.80402 13.904 7.64658 14.6451 8.19353ZM16.3309 10.5361C16.8835 10.5361 17.3315 10.0881 17.3315 9.53547C17.3315 8.98281 16.8835 8.5348 16.3309 8.5348C15.7782 8.5348 15.3302 8.98281 15.3302 9.53547C15.3302 10.0881 15.7782 10.5361 16.3309 10.5361ZM13.6624 10.5361C14.2151 10.5361 14.6631 10.0881 14.6631 9.53547C14.6631 8.98281 14.2151 8.5348 13.6624 8.5348C13.1098 8.5348 12.6618 8.98281 12.6618 9.53547C12.6618 10.0881 13.1098 10.5361 13.6624 10.5361Z" fill="#219653"/>
<path d="M5.9907 10.8697H5.32359V10.2026H5.9907V10.8697Z" fill="#219653"/>
<path d="M10.6605 10.8697H6.65782V10.2026H10.6605V10.8697Z" fill="#219653"/>
<path d="M10.6605 9.53547H5.32359V8.86834H10.6605V9.53547Z" fill="#219653"/>
<path d="M17.6652 6.53343H5.65714C5.47294 6.53343 5.32359 6.38408 5.32359 6.19987V4.19853C5.32359 4.01433 5.47294 3.86498 5.65714 3.86498H17.6652C17.8494 3.86498 17.9987 4.01433 17.9987 4.19853V6.19987C17.9987 6.38408 17.8494 6.53343 17.6652 6.53343ZM17.3316 4.53209H5.9907V5.86632H17.3316V4.53209Z" fill="#219653"/>
</g>
<defs>
<clipPath id="clip0">
<rect width="20" height="20" fill="white" transform="matrix(1 0 0 -1 0 20)"/>
</clipPath>
</defs>
</svg>
