<svg width="21" height="31" viewBox="0 0 21 31" fill="none" xmlns="http://www.w3.org/2000/svg">
<path fill-rule="evenodd" clip-rule="evenodd" d="M1.26442 5.54456L3.39027 5.55206C3.71716 5.53902 4.04457 5.54961 4.36996 5.58372C4.46058 5.61201 4.54398 5.65985 4.61435 5.72389C4.68472 5.78794 4.74037 5.86665 4.77741 5.95456C4.95546 6.35956 5.36456 9.03789 5.55255 9.07872H16.8981L18.9685 9.08372C19.2781 9.05281 19.5906 9.06769 19.896 9.12789C20.0406 9.18015 20.1649 9.2772 20.2513 9.40507C20.3376 9.53295 20.3813 9.68506 20.3763 9.83956C20.3116 10.1466 20.2116 10.445 20.0782 10.7287L19.6351 11.9612C19.1656 13.1612 18.807 14.3779 18.3192 15.5929L18.0393 16.2504C17.8737 16.7837 17.4737 18.2629 16.9503 18.3571L8.20261 18.3654C6.85356 18.5054 5.3538 17.9829 5.19314 19.3229C5.16218 19.5751 5.22317 19.83 5.3648 20.0404C5.50643 20.2508 5.71908 20.4024 5.96331 20.4671C6.72066 20.5465 7.48332 20.5616 8.24319 20.5121H14.9048H15.8C16.5644 20.5121 17.2078 20.4737 17.3205 21.1221C17.3364 21.2484 17.3186 21.3767 17.269 21.4939C17.2193 21.611 17.1397 21.7128 17.0381 21.7887C16.906 21.8907 16.7464 21.9502 16.5801 21.9596L9.91853 21.9546L6.86599 21.9496C6.48876 21.951 6.11172 21.9327 5.7364 21.8946C5.31844 21.8061 4.93019 21.6107 4.60914 21.3273C4.28809 21.0438 4.04508 20.6819 3.90357 20.2764C3.76205 19.8709 3.72682 19.4355 3.80126 19.0123C3.8757 18.5891 4.05731 18.1924 4.32855 17.8604C4.59151 17.566 4.90804 17.325 5.26104 17.1504C5.41048 17.1205 5.55437 17.0674 5.68754 16.9929L5.70079 16.9746L5.71155 16.9479C5.72346 16.7387 5.68033 16.53 5.5865 16.3429L5.16167 14.3179L4.02628 9.31039L3.66438 7.56706L3.52608 7.04456C3.36625 6.78956 1.48057 7.01289 1.01432 6.91456C0.889004 6.87773 0.776108 6.80706 0.687884 6.71022C0.599661 6.61339 0.539482 6.49409 0.513879 6.36527C0.488276 6.23645 0.498227 6.10304 0.542651 5.97951C0.587076 5.85598 0.664278 5.74705 0.765877 5.66456C0.922402 5.59138 1.09193 5.55058 1.26442 5.54456V5.54456ZM7.69165 10.5129C7.07515 10.4953 6.45816 10.5103 5.84323 10.5579C5.90677 11.026 5.99943 11.4897 6.12066 11.9462L6.57862 14.1579L7.01008 15.9437C7.05486 16.2715 7.13511 16.5935 7.24942 16.9037C7.5317 16.9757 7.8262 16.9849 8.11234 16.9304L11.0108 16.9354L15.0944 16.9304C15.4576 16.983 15.8265 16.9813 16.1892 16.9254L16.2447 16.8862C16.4743 16.4355 16.6529 15.9603 16.7772 15.4696C17.2128 14.3504 17.6136 13.1787 18.0501 12.0296L18.5801 10.6537C18.5837 10.6364 18.5832 10.6184 18.5784 10.6014C18.5737 10.5843 18.565 10.5687 18.5529 10.5557C18.5409 10.5428 18.5259 10.533 18.5093 10.5271C18.4927 10.5213 18.4749 10.5195 18.4575 10.5221H16.0261L7.69165 10.5129ZM14.5156 23.3996C14.797 23.3758 15.0763 23.4655 15.2921 23.649C15.5078 23.8325 15.6422 24.0947 15.6658 24.3779C15.6895 24.6611 15.6003 24.9422 15.418 25.1593C15.2356 25.3763 14.9751 25.5116 14.6936 25.5354C14.4486 25.5608 14.2023 25.5009 13.9958 25.3657C13.7894 25.2304 13.6353 25.028 13.5592 24.7923C13.4832 24.5565 13.4898 24.3016 13.5779 24.0702C13.666 23.8387 13.8304 23.6446 14.0435 23.5204C14.1949 23.4595 14.3536 23.4189 14.5156 23.3996ZM6.62914 23.3996C6.91181 23.3928 7.18557 23.4993 7.39018 23.6957C7.5948 23.8921 7.71352 24.1622 7.72022 24.4466C7.72692 24.7311 7.62105 25.0066 7.42591 25.2125C7.23076 25.4184 6.96233 25.5378 6.67965 25.5446C6.44129 25.5547 6.20633 25.4849 6.01168 25.3461C5.81702 25.2073 5.6737 25.0073 5.60423 24.7777C5.53475 24.548 5.54305 24.3016 5.62784 24.0772C5.71262 23.8528 5.86907 23.6631 6.07262 23.5379C6.24942 23.4621 6.43746 23.4162 6.62914 23.4021V23.3996Z" fill="black"/>
</svg>
