<svg width="84" height="30" viewBox="0 0 84 30" fill="none" xmlns="http://www.w3.org/2000/svg">
<g clip-path="url(#clip0)">
<g opacity="0.5">
<path fill-rule="evenodd" clip-rule="evenodd" d="M36.6489 5.08911C36.6489 5.08911 36.6489 5.08911 38.4098 5.08911C39.0514 5.08911 39.3747 5.40718 39.3747 6.12526C39.3747 6.12526 39.3747 6.12526 39.3747 8.66983C39.3747 8.66983 39.3747 8.66983 42.8242 8.66983C42.8242 8.66983 42.8242 8.66983 42.8242 6.12526C42.8242 5.40718 43.1426 5.08911 43.8662 5.08911C43.8662 5.08911 43.8662 5.08911 45.55 5.08911C45.55 5.08911 45.55 5.08911 45.55 6.7614C45.55 6.7614 45.55 6.7614 44.8311 6.7614L44.7491 6.84333C44.7491 6.84333 44.7491 6.84333 44.7491 14.0048C44.7491 14.0048 44.7491 14.0048 42.8242 14.0048C42.8242 14.0048 42.8242 14.0048 42.8242 10.4241C42.8242 10.4241 42.8242 10.4241 39.3747 10.4241C39.3747 10.4241 39.3747 10.4241 39.3747 14.0048C39.3747 14.0048 39.3747 14.0048 37.4497 14.0048C37.4497 14.0048 37.4497 14.0048 37.4497 6.84333C37.4497 6.84333 37.4497 6.7614 37.3677 6.7614C37.3677 6.7614 37.3677 6.7614 36.6489 6.7614C36.6489 6.7614 36.6489 6.7614 36.6489 5.08911Z" fill="white"/>
<path fill-rule="evenodd" clip-rule="evenodd" d="M50.6011 4.93018L50.6446 4.93499V6.77114L50.6011 6.7615C49.1586 6.7615 48.0345 7.95668 48.0345 9.46994C48.0345 11.0603 49.1586 12.3326 50.6011 12.3326L50.6446 12.3229V14.1591L50.6011 14.1639C48.0345 14.1639 45.9504 12.0964 45.9504 9.46994C45.9504 6.92054 48.0345 4.93018 50.6011 4.93018Z" fill="white"/>
<path fill-rule="evenodd" clip-rule="evenodd" d="M50.6447 4.93494L51.5372 5.02169C53.6552 5.43614 55.2521 7.23855 55.2521 9.46988C55.2521 11.7639 53.6552 13.6386 51.5372 14.0675L50.6447 14.159V12.3229L51.6241 12.1108C52.5697 11.6771 53.2499 10.6602 53.2499 9.46988C53.2499 8.33253 52.5697 7.37831 51.6241 6.97349L50.6447 6.77108V4.93494Z" fill="white"/>
<path fill-rule="evenodd" clip-rule="evenodd" d="M55.6523 5.08911C55.6523 5.08911 55.6523 5.08911 58.3395 5.08911H59.6228V6.7614H59.5022C59.343 6.7614 59.0198 6.7614 58.3781 6.7614C58.3781 6.7614 58.3781 6.7614 58.3781 8.59273C58.3781 8.59273 58.3781 8.59273 58.9233 8.59273H59.6228V10.1831H59.2127C59.0101 10.1831 58.7399 10.1831 58.3781 10.1831C58.3781 10.1831 58.3781 10.1831 58.3781 12.1734C58.3781 12.2554 58.3781 12.2554 58.4601 12.2554C58.4601 12.2554 58.4601 12.2554 59.0342 12.2554H59.6228V14.0048H59.454C59.1645 14.0048 58.5807 14.0048 57.418 14.0048C56.7764 14.0048 56.458 13.6867 56.458 12.9686V6.7614C56.458 6.7614 56.458 6.7614 55.6523 6.7614C55.6523 6.7614 55.6523 6.7614 55.6523 5.08911Z" fill="white"/>
<path fill-rule="evenodd" clip-rule="evenodd" d="M59.623 5.08911H59.6616C61.4274 5.08911 62.4695 6.04333 62.4695 7.47947C62.4695 8.35176 62.069 8.9108 61.6686 9.3108C62.3923 9.62887 62.8699 10.4241 62.8699 11.2963C62.8699 12.9686 61.5866 14.0048 59.7437 14.0048C59.7437 14.0048 59.7437 14.0048 59.7099 14.0048H59.623V12.2554H59.8208C60.4625 12.2554 60.8678 11.8554 60.8678 11.2192C60.8678 10.5831 60.4625 10.1831 59.8208 10.1831C59.8208 10.1831 59.8208 10.1831 59.6423 10.1831H59.623V8.59273H59.6616C60.2261 8.59273 60.5445 8.19273 60.5445 7.63851C60.5445 7.07947 60.2261 6.7614 59.6616 6.7614C59.6616 6.7614 59.6616 6.7614 59.6423 6.7614H59.623V5.08911Z" fill="white"/>
<path fill-rule="evenodd" clip-rule="evenodd" d="M66.5604 5.08911C66.5604 5.08911 66.5604 5.08911 67.3709 5.08911H67.5205V7.63851C67.4433 7.79755 67.3613 8.03369 67.3613 8.27466C67.3613 8.27466 67.3613 8.27466 66.7196 10.106C66.7196 10.106 66.7196 10.106 67.3999 10.106H67.5205V11.7734H67.0863C66.8402 11.7734 66.5604 11.7734 66.242 11.7734C66.242 11.7734 66.242 11.7734 65.6776 13.2096C65.5183 13.7638 65.1999 14.0048 64.5583 14.0048C64.5583 14.0048 64.5583 14.0048 63.3522 14.0048C63.3522 14.0048 63.3522 14.0048 63.3522 12.2554C63.3522 12.2554 63.3522 12.2554 63.7526 12.2554C63.9166 12.2554 63.9166 12.2554 63.9938 12.1734C63.9938 12.1734 63.9938 12.1734 66.5604 5.08911Z" fill="white"/>
<path fill-rule="evenodd" clip-rule="evenodd" d="M67.5203 5.08911H68.4852C68.4852 5.08911 68.4852 5.08911 71.0518 12.1734C71.129 12.2554 71.129 12.2554 71.2882 12.2554C71.2882 12.2554 71.2882 12.2554 71.6115 12.2554C71.6115 12.2554 71.6115 12.2554 71.6115 14.0048C71.6115 14.0048 71.6115 14.0048 70.4874 14.0048C69.8457 14.0048 69.5273 13.7638 69.3633 13.1277C69.3633 13.1277 69.3633 13.1277 68.8036 11.7734C68.8036 11.7734 68.8036 11.7734 67.723 11.7734H67.5203V10.106H68.3212C68.3212 10.106 68.3212 10.106 67.6844 8.27466C67.6844 8.03369 67.6023 7.79755 67.5203 7.63851V5.08911Z" fill="white"/>
<path fill-rule="evenodd" clip-rule="evenodd" d="M36.6489 16.5494C36.6489 16.5494 36.6489 16.5494 43.625 16.5494C44.2667 16.5494 44.6671 16.8675 44.6671 17.5856C44.6671 17.5856 44.6671 17.5856 44.6671 23.6338C44.6671 23.7109 44.6671 23.7109 44.7491 23.7109C44.7491 23.7109 44.7491 23.7109 45.3908 23.7109C45.3908 23.7109 45.3908 23.7109 45.3908 25.4651C45.3908 25.4651 45.3908 25.4651 43.707 25.4651C42.9834 25.4651 42.6649 25.147 42.6649 24.429C42.6649 24.429 42.6649 24.429 42.6649 18.3037C42.6649 18.3037 42.6649 18.2217 42.5829 18.2217C42.5829 18.2217 42.5829 18.2217 39.3747 18.2217C39.3747 18.2217 39.3747 18.2217 39.3747 25.4651C39.3747 25.4651 39.3747 25.4651 37.4497 25.4651C37.4497 25.4651 37.4497 25.4651 37.4497 18.2217C37.4497 18.2217 37.4497 18.2217 36.6489 18.2217C36.6489 18.2217 36.6489 18.2217 36.6489 16.5494Z" fill="white"/>
<path fill-rule="evenodd" clip-rule="evenodd" d="M50.4421 16.3904L50.4807 16.3952V18.2313L50.4421 18.2217C48.9948 18.2217 47.8755 19.4169 47.8755 20.9301C47.8755 22.5205 48.9948 23.7928 50.4421 23.7928L50.4807 23.7832V25.6193L50.4421 25.6241C47.8755 25.6241 45.8685 23.5518 45.8685 20.9301C45.8685 18.3807 47.8755 16.3904 50.4421 16.3904Z" fill="white"/>
<path fill-rule="evenodd" clip-rule="evenodd" d="M50.4805 16.3951L51.4019 16.4819C53.5585 16.8963 55.0926 18.6988 55.0926 20.9301C55.0926 23.2241 53.5585 25.0988 51.4019 25.5277L50.4805 25.6192V23.7831L51.4984 23.571C52.4585 23.1373 53.0905 22.1204 53.0905 20.9301C53.0905 19.7927 52.4585 18.8385 51.4984 18.4337L50.4805 18.2313V16.3951Z" fill="white"/>
<path fill-rule="evenodd" clip-rule="evenodd" d="M55.4931 16.5494C55.4931 16.5494 55.4931 16.5494 57.2589 16.5494C57.9005 16.5494 58.2189 16.8675 58.2189 17.5856C58.2189 17.5856 58.2189 17.5856 58.2189 23.6338C58.2189 23.7109 58.2189 23.7109 58.3009 23.7109C58.3009 23.7109 58.3009 23.7109 60.6263 23.7109C60.6263 23.7109 60.6263 23.7109 60.6263 16.5494C60.6263 16.5494 60.6263 16.5494 62.5513 16.5494C62.5513 16.5494 62.5513 16.5494 62.5513 23.7109C62.5513 23.7109 62.5513 23.7109 64.8766 23.7109C64.9587 23.7109 64.9587 23.7109 64.9587 23.6338C64.9587 23.6338 64.9587 23.6338 64.9587 17.5856C64.9587 16.8675 65.2771 16.5494 65.9187 16.5494C65.9187 16.5494 65.9187 16.5494 67.6845 16.5494C67.6845 16.5494 67.6845 16.5494 67.6845 18.2217C67.6845 18.2217 67.6845 18.2217 66.9608 18.2217C66.8788 18.2217 66.8788 18.3037 66.8788 18.3037C66.8788 18.3037 66.8788 18.3037 66.8788 24.429C66.8788 25.147 66.5604 25.4651 65.9187 25.4651C65.9187 25.4651 65.9187 25.4651 57.336 25.4651C56.6172 25.4651 56.294 25.147 56.294 24.429C56.294 24.429 56.294 24.429 56.294 18.3037C56.294 18.3037 56.294 18.2217 56.2168 18.2217C56.2168 18.2217 56.2168 18.2217 55.4931 18.2217C55.4931 18.2217 55.4931 18.2217 55.4931 16.5494Z" fill="white"/>
<path fill-rule="evenodd" clip-rule="evenodd" d="M69.2039 16.5494C69.2039 16.5494 69.2039 16.5494 75.22 16.5494C75.9437 16.5494 76.1849 16.8675 76.1849 17.5037C76.1849 17.5037 76.1849 17.5037 76.1849 19.0169H74.4191C74.4191 19.0169 74.4191 19.0169 74.4191 18.3037C74.4191 18.2217 74.4191 18.2217 74.3371 18.2217C74.3371 18.2217 74.3371 18.2217 73.2179 18.2217C73.2179 18.2217 73.2179 18.2217 73.2179 25.4651C73.2179 25.4651 73.2179 25.4651 71.2881 25.4651C71.2881 25.4651 71.2881 25.4651 71.2881 18.2217C71.2881 18.2217 71.2881 18.2217 70.1688 18.2217C70.0868 18.2217 70.0868 18.2217 70.0868 18.3037C70.0868 18.3037 70.0868 18.3037 70.0868 19.0169C70.0868 19.0169 70.0868 19.0169 68.321 19.0169C68.321 19.0169 68.321 19.0169 68.321 17.5037C68.321 16.8675 68.5623 16.5494 69.2039 16.5494Z" fill="white"/>
<path fill-rule="evenodd" clip-rule="evenodd" d="M78.6699 16.5494C78.6699 16.5494 78.6699 16.5494 79.4804 16.5494H79.63V19.0988C79.548 19.2579 79.4708 19.494 79.4708 19.735C79.4708 19.735 79.4708 19.735 78.8291 21.5663C78.8291 21.5663 78.8291 21.5663 79.5045 21.5663H79.63V23.2338H79.1958C78.9497 23.2338 78.6699 23.2338 78.3467 23.2338C78.3467 23.2338 78.3467 23.2338 77.787 24.588C77.6278 25.2241 77.3046 25.4651 76.663 25.4651C76.663 25.4651 76.663 25.4651 75.4617 25.4651C75.4617 25.4651 75.4617 25.4651 75.4617 23.7109C75.4617 23.7109 75.4617 23.7109 75.8621 23.7109C76.0261 23.7109 76.0261 23.7109 76.1033 23.6338C76.1033 23.6338 76.1033 23.6338 78.6699 16.5494Z" fill="white"/>
<path fill-rule="evenodd" clip-rule="evenodd" d="M79.6297 16.5494H80.5898C80.5898 16.5494 80.5898 16.5494 83.1612 23.6338C83.2384 23.7109 83.2384 23.7109 83.4024 23.7109H83.7208C83.7208 23.7109 83.7208 23.7109 83.7208 25.4651C83.7208 25.4651 83.7208 25.4651 82.5967 25.4651C81.9551 25.4651 81.6367 25.2241 81.4726 24.588C81.4726 24.588 81.4726 24.588 80.913 23.2338C80.913 23.2338 80.913 23.2338 79.8323 23.2338H79.6297V21.5663H80.4306C80.4306 21.5663 80.4306 21.5663 79.7889 19.735C79.7889 19.494 79.7117 19.2579 79.6297 19.0988V16.5494Z" fill="white"/>
<path fill-rule="evenodd" clip-rule="evenodd" d="M24.2887 8.88192C24.3804 8.853 24.501 8.91084 24.6216 9.06987C24.6216 9.06987 24.6216 9.06987 30.0732 14.4C30.3916 14.7181 30.3916 15.2 30.0732 15.4361C30.0732 15.4361 30.0732 15.4361 24.6216 20.8482C24.501 21.0072 24.3804 21.0458 24.2887 20.9976C24.1971 20.9494 24.1392 20.8096 24.1392 20.6072V9.22891C24.1392 9.03132 24.1971 8.91083 24.2887 8.88192Z" fill="white"/>
<path fill-rule="evenodd" clip-rule="evenodd" d="M14.9629 0H15.3489L15.7203 0.154217C15.7203 0.154217 15.7203 0.154217 21.3312 5.7253C21.5724 6.04337 21.4904 6.28434 21.0899 6.28434C21.0899 6.28434 21.0899 6.28434 18.7646 6.28434C18.3641 6.28434 18.0457 6.60241 18.0457 7.00241C18.0457 7.00241 18.0457 7.00241 18.0457 11.1373C18.0457 11.5373 17.7225 11.8554 17.24 11.8554C17.24 11.8554 17.24 11.8554 13.1537 11.8554C12.7533 11.8554 12.4301 11.5373 12.4301 11.1373C12.4301 11.1373 12.4301 11.1373 12.4301 7.00241C12.4301 6.60241 12.1117 6.28434 11.7064 6.28434H9.22182C8.82139 6.28434 8.73938 6.04337 8.9806 5.7253C8.9806 5.7253 8.9806 5.7253 14.5963 0.154217L14.9629 0Z" fill="white"/>
<path fill-rule="evenodd" clip-rule="evenodd" d="M6.17287 8.76148C6.27418 8.80967 6.3369 8.94943 6.3369 9.15184V20.7663C6.3369 20.9687 6.27418 21.0892 6.17287 21.1277C6.07638 21.1663 5.93647 21.1277 5.77244 21.0073C5.77244 21.0073 5.77244 21.0073 0.23881 15.4362C-0.0796033 15.2 -0.0796033 14.7181 0.23881 14.4C0.23881 14.4 0.23881 14.4 5.77244 8.91087C5.93647 8.75184 6.07638 8.71328 6.17287 8.76148Z" fill="white"/>
<path fill-rule="evenodd" clip-rule="evenodd" d="M13.1535 17.9036C13.1535 17.9036 13.1535 17.9036 17.2398 17.9036C17.7223 17.9036 18.0455 18.2216 18.0455 18.6216C18.0455 18.6216 18.0455 18.6216 18.0455 22.9975C18.0455 23.4746 18.3639 23.7927 18.7644 23.7927H20.9305C21.331 23.7927 21.4902 24.0289 21.1718 24.2698C21.1718 24.2698 21.1718 24.2698 15.7201 29.759C15.5561 29.918 15.3583 29.9999 15.1557 29.9999C14.9579 29.9999 14.7553 29.918 14.596 29.759C14.596 29.759 14.596 29.759 9.14443 24.2698C8.82119 24.0289 8.9804 23.7927 9.38083 23.7927C9.38083 23.7927 9.38083 23.7927 11.7062 23.7927C12.1115 23.7927 12.4299 23.4746 12.4299 22.9975C12.4299 22.9975 12.4299 22.9975 12.4299 18.6216C12.4299 18.2216 12.7531 17.9036 13.1535 17.9036Z" fill="white"/>
</g>
</g>
<defs>
<clipPath id="clip0">
<rect width="83.7209" height="30" fill="white"/>
</clipPath>
</defs>
</svg>
