<svg width="30" height="30" viewBox="0 0 30 30" fill="none" xmlns="http://www.w3.org/2000/svg">
<path d="M29.2129 23.1434L23.1408 19.094C22.3702 18.5842 21.3373 18.752 20.7676 19.4794L18.9989 21.7536C18.7715 22.0533 18.3583 22.1402 18.0295 21.9576L17.6931 21.7721C16.5777 21.1641 15.1899 20.4073 12.3939 17.6102C9.59777 14.8131 8.83939 13.4243 8.23145 12.311L8.04696 11.9746C7.86178 11.6458 7.94708 11.2308 8.24691 11.0017L10.5195 9.23347C11.2467 8.66373 11.4147 7.63111 10.9055 6.86031L6.85611 0.788205C6.33429 0.00328256 5.28737 -0.232347 4.47954 0.253265L1.94041 1.77853C1.1426 2.24756 0.557275 3.00717 0.307176 3.89819C-0.607161 7.22969 0.0806853 12.9793 8.55044 21.4501C15.288 28.1871 20.3037 29.9988 23.7512 29.9988C24.5446 30.0022 25.3349 29.899 26.1009 29.6919C26.9921 29.4421 27.7518 28.8567 28.2206 28.0587L29.7473 25.5211C30.2337 24.7131 29.9981 23.6655 29.2129 23.1434ZM28.8859 25.0081L27.3626 27.5472C27.0261 28.1232 26.4796 28.5467 25.8378 28.7291C22.7623 29.5734 17.3891 28.8741 9.2578 20.7427C1.12649 12.6114 0.427158 7.23871 1.27154 4.1627C1.4541 3.52014 1.87813 2.97302 2.45485 2.63592L4.99398 1.11265C5.34449 0.901743 5.79888 1.00397 6.02531 1.34459L8.22501 4.64709L10.0713 7.41617C10.2924 7.75051 10.2197 8.19863 9.90429 8.44603L7.63113 10.2142C6.93936 10.7432 6.74181 11.7003 7.16772 12.4599L7.34822 12.7879C7.98715 13.9597 8.7815 15.4175 11.6816 18.3171C14.5817 21.2166 16.039 22.011 17.2103 22.6499L17.5387 22.8309C18.2982 23.2567 19.2554 23.0593 19.7844 22.3675L21.5526 20.0943C21.8 19.7791 22.248 19.7065 22.5824 19.9274L28.654 23.9768C28.9949 24.203 29.0971 24.6576 28.8859 25.0081Z" fill="#33485D"/>
<path d="M16.9992 5.00257C21.6907 5.00779 25.4927 8.80978 25.4979 13.5013C25.4979 13.7774 25.7217 14.0012 25.9978 14.0012C26.2739 14.0012 26.4977 13.7774 26.4977 13.5013C26.4919 8.25779 22.2427 4.0085 16.9992 4.00276C16.7231 4.00276 16.4993 4.22656 16.4993 4.50267C16.4993 4.77878 16.7231 5.00257 16.9992 5.00257Z" fill="#33485D"/>
<path d="M16.9992 8.00215C20.0348 8.00572 22.4948 10.4657 22.4984 13.5014C22.4984 13.7775 22.7222 14.0013 22.9983 14.0013C23.2744 14.0013 23.4982 13.7775 23.4982 13.5014C23.494 9.91372 20.5867 7.00644 16.9992 7.00233C16.7231 7.00233 16.4993 7.22613 16.4993 7.50224C16.4993 7.77835 16.7231 8.00215 16.9992 8.00215Z" fill="#33485D"/>
<path d="M16.9992 11.0017C18.379 11.0033 19.4971 12.1215 19.4988 13.5013C19.4988 13.7774 19.7227 14.0012 19.9987 14.0012C20.2748 14.0012 20.4986 13.7774 20.4986 13.5013C20.4964 11.5696 18.931 10.004 16.9992 10.0019C16.7231 10.0019 16.4993 10.2257 16.4993 10.5018C16.4993 10.7779 16.7231 11.0017 16.9992 11.0017Z" fill="#33485D"/>
</svg>
