<svg width="18" height="20" viewBox="0 0 18 20" fill="none" xmlns="http://www.w3.org/2000/svg">
<path d="M17.4957 5.42648L17.4951 5.41091C17.4864 5.2188 17.4806 5.01556 17.477 4.78942C17.4607 3.68667 16.5841 2.77451 15.4812 2.71286C13.1817 2.58453 11.4028 1.83472 9.88292 0.353248L9.86995 0.340888C9.3742 -0.11367 8.62637 -0.11367 8.13046 0.340888L8.11749 0.353248C6.59756 1.83472 4.8187 2.58453 2.51921 2.71301C1.41646 2.77451 0.539688 3.68667 0.523362 4.78958C0.520005 5.01418 0.514054 5.21743 0.505356 5.41091L0.504441 5.44707C0.459733 7.79189 0.404191 10.7101 1.38045 13.3589C1.91725 14.8155 2.73023 16.0817 3.79667 17.1225C5.01126 18.3078 6.60214 19.2488 8.52505 19.9192C8.58761 19.9411 8.65261 19.9588 8.71883 19.972C8.81222 19.9906 8.90621 20 9.00021 20C9.0942 20 9.18834 19.9906 9.28158 19.972C9.3478 19.9588 9.41326 19.9409 9.47613 19.9189C11.3967 19.2472 12.9859 18.3058 14.1995 17.1206C15.2654 16.0795 16.0784 14.813 16.6157 13.3561C17.5956 10.6994 17.5402 7.77571 17.4957 5.42648ZM15.5146 12.9501C14.485 15.7418 12.3831 17.6591 9.08886 18.8111C9.07711 18.8151 9.0646 18.8186 9.05163 18.8212C9.0176 18.8279 8.98296 18.8279 8.94848 18.8211C8.93566 18.8185 8.92315 18.8151 8.91155 18.8111C5.61383 17.6612 3.51057 15.7451 2.48167 12.9532C1.58186 10.5116 1.63283 7.83278 1.67784 5.46951L1.67814 5.45638C1.6873 5.25329 1.6934 5.04058 1.69676 4.80682C1.70408 4.31716 2.0941 3.91205 2.58467 3.88473C3.88593 3.8121 5.02912 3.56064 6.07953 3.116C7.12857 2.67197 8.06027 2.04605 8.92757 1.20255C8.97167 1.16532 9.02889 1.16517 9.07284 1.20255C9.9403 2.04605 10.872 2.67197 11.9209 3.116C12.9713 3.56064 14.1145 3.8121 15.4159 3.88473C15.9065 3.91205 16.2965 4.31716 16.3037 4.80697C16.3072 5.04196 16.3133 5.25466 16.3224 5.45638C16.3673 7.8224 16.417 10.5034 15.5146 12.9501Z" fill="#219653"/>
<path d="M9 5.01604C6.25159 5.01604 4.01572 7.25206 4.01572 10.0003C4.01572 12.7487 6.25159 14.9848 9 14.9848C11.7483 14.9848 13.9843 12.7487 13.9843 10.0003C13.9843 7.25206 11.7483 5.01604 9 5.01604ZM9 13.8111C6.89871 13.8111 5.18927 12.1016 5.18927 10.0003C5.18927 7.89903 6.89871 6.18959 9 6.18959C11.1011 6.18959 12.8106 7.89903 12.8106 10.0003C12.8106 12.1016 11.1011 13.8111 9 13.8111Z" fill="#219653"/>
<path d="M10.4325 8.4529L8.1174 10.768L7.48904 10.1396C7.25986 9.91042 6.88831 9.91042 6.65912 10.1396C6.43008 10.3688 6.43008 10.7403 6.65912 10.9694L7.70251 12.0128C7.81711 12.1274 7.96725 12.1846 8.1174 12.1846C8.26755 12.1846 8.41769 12.1274 8.53229 12.0128L11.2624 9.28267C11.4914 9.05348 11.4914 8.68193 11.2624 8.4529C11.0332 8.22356 10.6617 8.22356 10.4325 8.4529Z" fill="#219653"/>
</svg>
