<svg width="1840" height="889" viewBox="0 0 1840 889" fill="none" xmlns="http://www.w3.org/2000/svg">
<mask id="mask0" style="mask-type:alpha" maskUnits="userSpaceOnUse" x="0" y="0" width="1840" height="889">
<path d="M0 22C0 9.84973 9.84974 0 22 0H1818C1830.15 0 1840 9.84974 1840 22V867C1840 879.15 1830.15 889 1818 889H22C9.84972 889 0 879.15 0 867V22Z" fill="#323244"/>
</mask>
<g mask="url(#mask0)">
<path d="M0 22C0 9.84973 9.84974 0 22 0H1818C1830.15 0 1840 9.84974 1840 22V867C1840 879.15 1830.15 889 1818 889H22C9.84972 889 0 879.15 0 867V22Z" fill="url(#paint0_linear)"/>
<g filter="url(#filter0_b)">
<ellipse rx="122" ry="122" transform="matrix(-4.37114e-08 1 1 4.37114e-08 39 867)" fill="url(#paint1_radial)" fill-opacity="0.2"/>
<path d="M39 988C105.826 988 160 933.826 160 867C160 800.174 105.826 746 39 746C-27.8265 746 -82 800.174 -82 867C-82 933.826 -27.8265 988 39 988Z" stroke="url(#paint2_linear)" stroke-opacity="0.3" stroke-width="2"/>
</g>
<circle cx="1811" cy="676" r="497" fill="url(#paint3_radial)"/>
<g filter="url(#filter1_b)">
<ellipse rx="387.5" ry="387.5" transform="matrix(1 8.74228e-08 8.74228e-08 -1 1810.5 547.496)" fill="url(#paint4_radial)" fill-opacity="0.2"/>
<path d="M2197 547.496C2197 334.038 2023.96 160.996 1810.5 160.996C1597.04 160.996 1424 334.038 1424 547.496C1424 760.954 1597.04 933.996 1810.5 933.996C2023.96 933.996 2197 760.954 2197 547.496Z" stroke="url(#paint5_linear)" stroke-opacity="0.6" stroke-width="2"/>
</g>
</g>
<defs>
<filter id="filter0_b" x="-203" y="625" width="484" height="484" filterUnits="userSpaceOnUse" color-interpolation-filters="sRGB">
<feFlood flood-opacity="0" result="BackgroundImageFix"/>
<feGaussianBlur in="BackgroundImage" stdDeviation="60"/>
<feComposite in2="SourceAlpha" operator="in" result="effect1_backgroundBlur"/>
<feBlend mode="normal" in="SourceGraphic" in2="effect1_backgroundBlur" result="shape"/>
</filter>
<filter id="filter1_b" x="1303" y="39.9958" width="1015" height="1015" filterUnits="userSpaceOnUse" color-interpolation-filters="sRGB">
<feFlood flood-opacity="0" result="BackgroundImageFix"/>
<feGaussianBlur in="BackgroundImage" stdDeviation="60"/>
<feComposite in2="SourceAlpha" operator="in" result="effect1_backgroundBlur"/>
<feBlend mode="normal" in="SourceGraphic" in2="effect1_backgroundBlur" result="shape"/>
</filter>
<linearGradient id="paint0_linear" x1="-22" y1="262" x2="1852" y2="889" gradientUnits="userSpaceOnUse">
<stop stop-color="#FF7800"/>
<stop offset="1" stop-color="#FE374A"/>
</linearGradient>
<radialGradient id="paint1_radial" cx="0" cy="0" r="1" gradientUnits="userSpaceOnUse" gradientTransform="translate(122 122) rotate(90) scale(122)">
<stop stop-color="white" stop-opacity="0.21"/>
<stop offset="1" stop-color="#D8F8FF"/>
</radialGradient>
<linearGradient id="paint2_linear" x1="4.52518" y1="983.333" x2="-24.1252" y2="819.302" gradientUnits="userSpaceOnUse">
<stop stop-color="white"/>
<stop offset="1" stop-color="white" stop-opacity="0"/>
</linearGradient>
<radialGradient id="paint3_radial" cx="0" cy="0" r="1" gradientUnits="userSpaceOnUse" gradientTransform="translate(1782.31 521.705) rotate(156.098) scale(597.051 590.235)">
<stop stop-color="#FF6D43"/>
<stop offset="1" stop-color="#FF0000" stop-opacity="0.05"/>
</radialGradient>
<radialGradient id="paint4_radial" cx="0" cy="0" r="1" gradientUnits="userSpaceOnUse" gradientTransform="translate(387.5 387.5) rotate(90) scale(387.5)">
<stop stop-color="#FE3449"/>
<stop offset="1" stop-color="#FF374A"/>
</radialGradient>
<linearGradient id="paint5_linear" x1="2180" y1="656.996" x2="1659" y2="747.996" gradientUnits="userSpaceOnUse">
<stop stop-color="white"/>
<stop offset="1" stop-color="white" stop-opacity="0"/>
</linearGradient>
</defs>
</svg>
